<svg width="1915" height="117" viewBox="0 0 1915 117" fill="none" xmlns="http://www.w3.org/2000/svg">
<path d="M278 27.001C263 69.501 122 2.50099 0 116.501H1914.5C1914.5 116.501 1766 83.001 1849 27.001C1932 -28.999 1781 30.3765 1628 73.001C1475 115.626 1456.74 67.5157 1347 64.001C1347 64.001 1333.5 4.50096 1225 73.001C1116.5 141.501 1264.5 -11.9995 1172.06 51.6885C1079.62 115.376 1119.12 30.376 1119.12 30.376L989 4.50096C1228.5 190.501 679.5 42.5004 679.5 42.5004C679.5 42.5004 348 -56.4994 479 48.0004C610 152.5 278 27.001 278 27.001Z" fill="#B9FF26"/>
</svg>
