<svg width="1915" height="117" viewBox="0 0 1915 117" fill="none" xmlns="http://www.w3.org/2000/svg">
<path d="M1636.92 89.6426C1651.92 47.1426 1792.92 114.143 1914.92 0.142563L0.415649 0.142563C0.415649 0.142563 148.916 33.6426 65.9156 89.6426C-17.0844 145.643 133.916 86.2671 286.916 43.6426C439.916 1.01804 458.178 49.1278 567.916 52.6426C567.916 52.6426 581.416 112.143 689.916 43.6426C798.416 -24.8575 650.416 128.643 742.853 64.9551C835.291 1.26707 795.791 86.2676 795.791 86.2676L925.916 112.143C686.416 -73.8574 1235.42 74.1432 1235.42 74.1432C1235.42 74.1432 1566.92 173.143 1435.92 68.6432C1304.92 -35.8567 1636.92 89.6426 1636.92 89.6426Z" fill="#B9FF26"/>
</svg>
